{"title":"Stake Land 2010 DVDrip English Klam","uid":6533225,"size":1378511943,"categoryP":"video","categoryS":"movies","magnet":"?xt=urn:btih:76280a827c0d1dad8415064a0f57f7529f41867d&amp;dn=Stake+Land+2010+DVDrip+English+Klam&amp;tr=udp%3A%2F%2Ftracker.openbittorrent.com%3A80&amp;tr=udp%3A%2F%2Fopen.demonii.com%3A1337&amp;tr=udp%3A%2F%2Ftracker.coppersurfer.tk%3A6969&amp;tr=udp%3A%2F%2Fexodus.desync.com%3A6969","seeders":0,"leechers":0,"uploader":"Klambake","files":-1,"time":1310421964,"description":"With: Nick Damici, Connor Paolo and Danielle Harris\n\nMartin was een normale puber tot het moment waarop het land ineenstortte door economische en politieke rampen. Uit de as van dat slagveld rees een vampierenbewind dat door de verlaten dorpen en steden raasde. Martins familie werd afgeslacht en nu is hij aangewezen op Mister, een ruige vampierenjager, die hem naar een veilig gebied zal brengen. Hij leert hem te jagen en te overleven. Samen ontdekken ze dat de overgebleven bevolking net zo bloeddorstig kan zijn als de vampieren. Gewapend met een kofferbak vol staken en de wil om te leven banen ze zich een weg door de steden en rekruteren waar het kan, nieuwe vampierjagers.\n\nMartin was a normal teenage boy before the country collapsed in an empty pit of economic and political disaster...\n\n------------------ Dutch Friends ------------------\nYou can find my Friends at: http://www.Film-Test.nl \n------ They got my dutchs subs ---- and more ------\n\nGeneral:\n\nComplete name                    : Stake Land\\Stake Land.avi\nFormat                           : AVI\nFormat/Info                      : Audio Video Interleave\nFile size                        : 1.28 GiB\nDuration                         : 1h 38mn\nOverall bit rate                 : 1 869 Kbps\n\nVideo:\n\nFormat                           : MPEG-4 Visual\nFormat profile                   : Advanced Simple@L5\nFormat settings, BVOP            : Yes\nFormat settings, QPel            : No\nFormat settings, GMC             : No warppoints\nFormat settings, Matrix          : Default (H.263)\nCodec ID                         : XVID\nCodec ID/Hint                    : XviD\nDuration                         : 1h 34mn\nBit rate                         : 1 488 Kbps\nWidth                            : 720 pixels\nHeight                           : 304 pixels\nDisplay aspect ratio             : 2.35:1\nFrame rate                       : 23.976 fps\nColor space                      : YUV\nChroma subsampling               : 4:2:0\nBit depth                        : 8 bits\nScan type                        : Progressive\nBits/(Pixel*Frame)               : 0.284\nStream size                      : 1 006 MiB (76%)\nWriting library                  : XviD 1.2.1 (UTC 2008-12-04)\n\nAudio:\n\nFormat                           : AC-3\nFormat/Info                      : Audio Coding 3\nMode extension                   : CM (complete main)\nCodec ID                         : 2000\nDuration                         : 1h 38mn\nBit rate mode                    : Constant\nBit rate                         : 448 Kbps\nChannel(s)                       : 6 channels\nChannel positions                : Front: L C R, Side: L R, LFE\nSampling rate                    : 48.0 KHz\nBit depth                        : 16 bits\nStream size                      : 303 MiB (23%)\nAlignment                        : Aligned on interleaves\nInterleave, duration             : 42 ms (1.00 video frame)\n","torrent":{"xt":"urn:btih:76280a827c0d1dad8415064a0f57f7529f41867d","amp;dn":"Stake+Land+2010+DVDrip+English+Klam","amp;tr":["udp%3A%2F%2Ftracker.openbittorrent.com%3A80","udp%3A%2F%2Fopen.demonii.com%3A1337","udp%3A%2F%2Ftracker.coppersurfer.tk%3A6969","udp%3A%2F%2Fexodus.desync.com%3A6969"],"infoHash":"76280a827c0d1dad8415064a0f57f7529f41867d","infoHashBuffer":{"type":"Buffer","data":[118,40,10,130,124,13,29,173,132,21,6,74,15,87,247,82,159,65,134,125]},"announce":[],"urlList":[]}}